<?xml version="1.0" standalone="no"?>
<!DOCTYPE svg PUBLIC "-//W3C//DTD SVG 20010904//EN"
 "http://www.w3.org/TR/2001/REC-SVG-20010904/DTD/svg10.dtd">
<svg version="1.0" xmlns="http://www.w3.org/2000/svg"
 width="816.000000pt" height="816.000000pt" viewBox="0 0 816.000000 816.000000"
 preserveAspectRatio="xMidYMid meet">
<metadata>
Created by potrace 1.11, written by Peter Selinger 2001-2013
</metadata>
<g transform="translate(0.000000,816.000000) scale(0.100000,-0.100000)"
fill="#000000" stroke="none">
<path d="M900 7950 c-1 -121 -1 -7827 0 -7898 l0 -53 1593 5 c875 2 1606 6
1622 9 26 3 73 9 185 23 63 7 101 14 247 40 16 3 73 17 128 30 55 14 107 27
115 29 67 15 303 97 382 134 26 11 50 21 53 21 3 0 58 26 123 59 170 85 186
94 192 100 9 10 44 31 63 37 9 4 17 10 17 15 0 5 5 9 11 9 17 0 206 138 314
230 69 59 229 220 278 279 28 35 59 71 68 80 8 9 29 34 45 56 16 22 32 44 36
50 4 5 19 24 33 41 14 18 25 37 25 43 0 6 3 11 8 11 4 0 29 37 57 83 27 45 52
84 55 87 5 5 39 65 69 125 9 16 20 33 24 36 5 3 8 8 7 10 -1 2 24 58 56 124
59 126 122 283 180 450 36 101 121 420 128 478 3 18 5 32 6 32 2 0 8 32 14 70
3 17 8 41 11 55 9 40 15 80 30 180 12 81 14 94 20 150 3 30 8 71 10 90 4 31 8
67 20 220 25 327 21 851 -9 1170 -2 19 -7 66 -10 103 -3 37 -8 82 -11 100 -3
18 -7 49 -10 69 -2 21 -7 53 -10 70 -3 18 -7 47 -10 63 -6 45 -15 97 -21 125
-3 14 -8 39 -10 55 -5 39 -30 151 -43 193 -5 17 -8 32 -6 32 3 0 0 11 -5 25
-5 14 -12 38 -15 53 -3 15 -7 32 -9 37 -2 6 -6 24 -10 40 -17 67 -118 359
-161 466 -68 166 -183 393 -261 517 -19 29 -34 56 -34 61 0 5 -4 11 -8 13 -5
2 -23 26 -42 53 -31 46 -166 224 -179 235 -3 3 -24 25 -45 50 -94 109 -220
232 -331 325 -38 32 -72 61 -75 64 -3 3 -12 11 -22 16 -9 6 -63 42 -120 81
-160 109 -365 219 -503 269 -27 10 -54 21 -60 25 -5 4 -39 17 -75 29 -36 12
-74 26 -85 32 -11 5 -29 10 -40 12 -11 1 -24 5 -30 8 -5 3 -32 12 -60 18 -27
7 -61 17 -75 22 -24 8 -37 11 -125 29 -22 4 -65 13 -95 19 -104 22 -250 42
-395 56 -144 14 -475 17 -1787 18 l-1438 2 0 -95z m3105 -1073 c22 -3 63 -8
91 -11 28 -4 61 -9 75 -11 13 -3 35 -7 49 -10 50 -10 66 -13 110 -25 133 -34
218 -65 350 -128 41 -20 77 -36 80 -37 9 -1 194 -120 214 -136 6 -5 22 -18 36
-29 174 -138 315 -296 423 -475 128 -211 242 -539 273 -785 3 -19 7 -46 9 -60
3 -14 7 -50 11 -80 3 -30 8 -71 11 -90 8 -57 16 -1000 8 -1000 -5 0 -64 35
-132 78 -68 42 -135 83 -150 91 -15 8 -36 22 -47 33 -11 10 -24 18 -28 18 -5
0 -21 8 -36 19 -62 43 -304 191 -313 191 -5 0 -9 5 -9 10 0 6 -7 10 -15 10 -8
0 -15 5 -15 10 0 6 -5 10 -11 10 -6 0 -30 14 -54 30 -24 17 -48 30 -54 30 -6
0 -11 5 -11 10 0 6 -4 10 -9 10 -6 0 -30 14 -54 30 -25 17 -49 30 -55 30 -6 0
-12 6 -15 13 -14 40 -21 -28 -21 -211 0 -195 1 -207 19 -217 11 -6 40 -24 65
-40 25 -16 54 -34 65 -40 29 -16 131 -77 173 -103 21 -12 49 -27 65 -33 15 -6
27 -14 27 -18 0 -3 17 -15 38 -26 20 -11 48 -27 62 -36 61 -39 110 -69 185
-113 98 -58 106 -63 172 -103 30 -18 56 -33 58 -33 3 0 28 -15 55 -32 l51 -33
-3 -84 -3 -83 -164 -99 c-91 -55 -166 -99 -167 -99 -3 0 -243 -146 -264 -160
-8 -6 -23 -13 -32 -16 -10 -4 -18 -10 -18 -15 0 -5 -4 -9 -10 -9 -5 0 -68 -36
-140 -80 -72 -44 -134 -80 -138 -81 -4 0 -27 -15 -52 -33 l-44 -32 -1 -203 c0
-139 3 -205 11 -208 6 -2 44 18 85 44 41 26 84 53 94 60 11 6 65 40 120 75 55
35 104 65 109 67 6 2 47 28 93 57 45 30 87 54 93 54 5 0 10 4 10 8 0 5 10 14
23 20 25 13 48 27 207 127 62 39 125 78 141 87 l30 18 -6 -58 c-3 -31 -8 -69
-11 -84 -3 -15 -7 -39 -9 -55 -3 -15 -6 -35 -8 -43 -2 -8 -8 -37 -12 -65 -10
-57 -12 -64 -14 -67 -2 -2 -4 -14 -7 -28 -15 -88 -141 -433 -165 -450 -3 -3
-10 -16 -14 -29 -10 -31 -85 -155 -96 -159 -5 -2 -9 -8 -9 -13 0 -19 -117
-163 -195 -242 -187 -187 -427 -342 -653 -422 -42 -15 -84 -29 -92 -32 -8 -4
-19 -7 -25 -8 -5 -2 -37 -10 -70 -19 -33 -9 -69 -18 -80 -20 -20 -4 -58 -11
-105 -21 -14 -3 -47 -8 -75 -11 -27 -3 -66 -8 -85 -11 -19 -3 -432 -7 -918 -8
l-883 -3 1 31 c0 18 0 39 0 47 -1 8 -1 43 0 77 1 34 -1 67 -4 72 -4 5 -3 12 2
15 5 3 7 20 5 38 -5 40 -5 37 -3 115 1 34 -1 67 -4 72 -4 5 -3 12 2 15 5 3 7
20 5 38 -5 46 -3 150 3 160 3 4 0 8 -6 8 -6 0 -8 5 -4 11 5 8 7 134 3 259 0 8
0 43 1 77 1 34 -1 67 -4 72 -4 5 -3 12 2 15 5 3 7 20 5 38 -5 46 -3 150 3 160
3 4 0 8 -6 8 -6 0 -8 5 -4 11 3 6 6 65 5 132 -2 160 -1 199 5 208 4 7 30 -6
102 -53 15 -10 34 -21 42 -25 8 -4 20 -11 25 -16 11 -9 155 -99 211 -132 19
-11 80 -49 136 -85 57 -36 107 -67 113 -69 5 -2 28 -16 50 -31 22 -15 43 -27
46 -26 3 0 12 -4 20 -11 12 -10 14 17 14 195 0 116 -5 214 -10 222 -6 8 -23
22 -40 31 -16 9 -113 66 -214 127 -101 62 -186 112 -188 112 -3 0 -24 14 -48
30 -24 17 -47 30 -50 30 -4 0 -21 10 -38 23 -32 22 -55 36 -112 65 -60 32 -64
40 -62 135 1 48 -2 87 -6 87 -5 0 -5 5 -1 12 4 6 6 72 6 147 -1 75 2 141 6
147 4 6 56 40 115 75 59 35 120 72 135 81 15 10 33 21 40 24 8 4 102 60 209
125 108 66 199 119 202 119 3 0 17 9 31 20 l25 19 0 210 c0 116 -1 211 -3 211
-6 0 -67 -34 -72 -41 -3 -3 -36 -25 -75 -48 -85 -52 -304 -187 -325 -201 -60
-41 -193 -120 -201 -120 -5 0 -9 -4 -9 -10 0 -5 -7 -10 -15 -10 -8 0 -15 -5
-15 -11 0 -5 -4 -7 -10 -4 -5 3 -10 2 -10 -3 0 -6 -6 -12 -14 -15 -12 -5 -15
14 -15 119 -1 69 -3 129 -6 134 -3 5 -2 11 3 14 5 3 7 20 5 38 -2 18 -4 40 -4
48 0 8 1 59 1 112 1 54 -1 102 -4 107 -4 5 -3 12 2 15 5 3 7 20 5 38 -2 18 -3
51 -3 73 6 160 3 495 -3 495 -5 0 -5 5 -1 11 5 8 7 134 3 259 0 8 0 43 1 77 1
34 -1 67 -4 72 -4 5 -3 12 2 15 5 3 7 20 5 38 -2 18 -4 40 -4 48 3 179 0 453
-4 460 -3 5 -2 11 3 14 5 3 7 20 5 38 -2 18 -4 40 -4 48 0 8 1 59 1 112 1 54
-1 102 -4 107 -4 5 -3 12 2 15 5 3 7 20 5 38 -5 40 -5 37 -3 116 l2 63 881 -4
c485 -2 900 -7 922 -10z"/>
<path d="M3748 5244 c-110 -26 -155 -97 -153 -241 2 -112 25 -170 83 -207 22
-14 51 -27 64 -28 12 -2 28 -6 33 -9 16 -10 126 -3 172 10 96 27 135 90 138
224 3 105 -7 144 -51 195 -51 60 -170 84 -286 56z"/>
<path d="M3630 3399 l1 -998 27 -3 c15 -2 42 0 60 3 17 4 35 3 38 -2 3 -5 10
-7 15 -4 9 6 172 10 194 5 6 -1 27 -2 48 -1 l37 1 0 998 0 998 -210 0 -210 1
0 -998z"/>
</g>
</svg>
