<svg width="40" height="51" viewBox="0 0 40 51" fill="none" xmlns="http://www.w3.org/2000/svg">
<path d="M0.118164 0.744019H17.9022C21.1182 0.744019 24.0222 1.27202 26.6142 2.32802C29.2542 3.38402 31.4862 4.96802 33.3102 7.08002C35.1822 9.14402 36.6222 11.76 37.6302 14.928C38.6382 18.048 39.1422 21.696 39.1422 25.872C39.1422 30.048 38.6382 33.72 37.6302 36.888C36.6222 40.008 35.1822 42.624 33.3102 44.736C31.4862 46.8 29.2542 48.36 26.6142 49.416C24.0222 50.472 21.1182 51 17.9022 51H0.118164V0.744019ZM17.9022 43.8C21.6462 43.8 24.6702 42.624 26.9742 40.272C29.2782 37.92 30.4302 34.464 30.4302 29.904V21.84C30.4302 17.28 29.2782 13.824 26.9742 11.472C24.6702 9.12002 21.6462 7.94402 17.9022 7.94402H8.25416V43.8H17.9022Z" fill="#F7931A"/>
<path d="M3.23798 30.096V28.128L13.03 22.032V24.72L5.85398 29.016V29.184L13.03 33.504V36.192L3.23798 30.096Z" fill="#F7931A"/>
<path d="M18.5166 21.288C17.9726 21.288 17.5726 21.16 17.3166 20.904C17.0766 20.648 16.9566 20.32 16.9566 19.92V19.512C16.9566 19.112 17.0766 18.784 17.3166 18.528C17.5726 18.272 17.9726 18.144 18.5166 18.144C19.0606 18.144 19.4526 18.272 19.6926 18.528C19.9326 18.784 20.0526 19.112 20.0526 19.512V19.92C20.0526 20.32 19.9326 20.648 19.6926 20.904C19.4526 21.16 19.0606 21.288 18.5166 21.288ZM17.1966 23.52H19.8126V36H17.1966V23.52Z" fill="#F7931A"/>
<path d="M23.9802 33.504L31.1562 29.184V29.016L23.9802 24.72V22.032L33.7722 28.128V30.096L23.9802 36.192V33.504Z" fill="#F7931A"/>
</svg>
